<svg id="Capa_1" enable-background="new 0 0 512 512" height="512" viewBox="0 0 512 512" width="512" xmlns="http://www.w3.org/2000/svg" xmlns:xlink="http://www.w3.org/1999/xlink"><linearGradient id="SVGID_1_" gradientUnits="userSpaceOnUse" x1="256" x2="256" y1="512" y2="0"><stop offset="0" stop-color="#addcff"/><stop offset=".5028" stop-color="#eaf6ff"/><stop offset="1" stop-color="#eaf6ff"/></linearGradient><linearGradient id="SVGID_2_" gradientUnits="userSpaceOnUse" x1="256" x2="256" y1="407" y2="105"><stop offset="0" stop-color="#00c0ff"/><stop offset="1" stop-color="#5558ff"/></linearGradient><g><circle cx="256" cy="256" fill="url(#SVGID_1_)" r="256"/></g><g><g><path d="m309.294 211.588h-142.117c-4.892 0-8.882 3.981-8.882 8.882v106.588c0 4.901 3.99 8.883 8.882 8.883h142.118c4.892 0 8.882-3.981 8.882-8.883v-106.587c0-4.901-3.991-8.883-8.883-8.883zm88.824-53.294h-284.236c-4.91 0-8.882 3.973-8.882 8.882v213.177c0 4.91 3.973 8.882 8.882 8.882h26.647v8.882c0 4.91 3.973 8.882 8.882 8.882 4.91 0 8.883-3.973 8.883-8.882v-8.882h195.412v8.882c0 4.91 3.973 8.882 8.883 8.882 4.909 0 8.882-3.973 8.882-8.882v-8.882h26.647c4.91 0 8.882-3.973 8.882-8.882v-213.177c0-4.909-3.973-8.882-8.882-8.882zm-62.177 168.765c0 14.694-11.953 26.647-26.647 26.647h-142.117c-14.694 0-26.647-11.953-26.647-26.647v-106.588c0-14.694 11.953-26.647 26.647-26.647h142.118c14.694 0 26.647 11.953 26.647 26.647v106.588zm26.647-79.941c-4.905 0-8.883-3.977-8.883-8.882 0-4.906 3.977-8.882 8.883-8.882 4.905 0 8.882 3.976 8.882 8.882.001 4.905-3.977 8.882-8.882 8.882zm0-35.53c-4.905 0-8.883-3.977-8.883-8.882 0-4.906 3.977-8.883 8.883-8.883 4.905 0 8.882 3.977 8.882 8.883.001 4.905-3.977 8.882-8.882 8.882zm-47.014-91.425c3.47-3.47 3.47-9.091 0-12.561-3.47-3.469-9.091-3.469-12.56 0l-32.927 32.927h25.12zm-98.781 20.366h25.12l-32.927-32.927c-3.469-3.469-9.09-3.469-12.56 0-3.47 3.47-3.47 9.091 0 12.561z" fill="url(#SVGID_2_)"/></g></g></svg>